<svg width="32" height="32" viewBox="0 0 32 32" fill="none" xmlns="http://www.w3.org/2000/svg">
<path fill-rule="evenodd" clip-rule="evenodd" d="M16.0346 2.66667C8.6893 2.66667 2.73596 8.62001 2.73596 15.9653C2.73596 21.84 6.5453 26.8253 11.8306 28.5853C12.496 28.7053 12.736 28.296 12.736 27.944C12.736 27.628 12.7253 26.7907 12.7213 25.6827C9.0213 26.4853 8.23996 23.8987 8.23996 23.8987C7.63729 22.3627 6.76396 21.9533 6.76396 21.9533C5.5573 21.128 6.85596 21.1467 6.85596 21.1467C8.19196 21.24 8.89196 22.5173 8.89196 22.5173C10.0786 24.5493 12.0066 23.9627 12.7613 23.6227C12.8826 22.7627 13.2293 22.176 13.608 21.844C10.656 21.5093 7.55196 20.368 7.55196 15.2707C7.55196 13.8213 8.07063 12.632 8.91729 11.704C8.78263 11.3667 8.32263 10.0133 9.04929 8.184C9.04929 8.184 10.1653 7.82534 12.7053 9.54534C13.7901 9.25023 14.9091 9.0996 16.0333 9.09734C17.1575 9.09916 18.2766 9.2498 19.3613 9.54534C21.9026 7.824 23.0173 8.184 23.0173 8.184C23.744 10.0133 23.288 11.3667 23.1493 11.704C24.0026 12.632 24.5146 13.82 24.5146 15.2707C24.5146 20.3813 21.408 21.504 18.4453 21.8333C18.9186 22.244 19.3453 23.0547 19.3453 24.2947C19.3453 26.0733 19.3293 27.508 19.3293 27.944C19.3293 28.3 19.5666 28.7133 20.2453 28.5827C25.528 26.82 29.3333 21.8387 29.3333 15.9653C29.3333 8.62001 23.38 2.66667 16.0346 2.66667Z" fill="white"/>
</svg>
